<svg width="239" height="40" viewBox="0 0 239 40" fill="none" xmlns="http://www.w3.org/2000/svg">
<path d="M196.498 10.4573H205.321L213.533 24.6222L221.772 10.4573H230.595V29.0604H226.449V10.6433L215.739 29.0604H211.354L200.617 10.6433V29.0604H196.498V10.4573Z" fill="#2E0368"></path>
<path d="M169.921 21.8317C166.785 21.8317 164.261 19.307 164.261 16.1445C164.261 13.0086 166.785 10.4573 169.921 10.4573H193.972V14.6031H169.921C169.071 14.6031 168.38 15.2941 168.38 16.1445C168.38 17.0215 169.071 17.7125 169.921 17.7125H188.285C191.421 17.7125 193.972 20.2372 193.972 23.3997C193.972 26.5357 191.421 29.0604 188.285 29.0604H164.261V24.9411H188.285C189.136 24.9411 189.827 24.2501 189.827 23.3997C189.827 22.5227 189.136 21.8317 188.285 21.8317H169.921Z" fill="#2E0368"></path>
<path d="M154.857 10.4573C158.843 10.4573 162.086 13.6995 162.086 17.7125C162.086 21.6989 158.843 24.9411 154.857 24.9411H136.254V29.0604H132.135V10.4573H154.857ZM154.83 20.7953C156.558 20.7953 157.94 19.4133 157.94 17.7125C157.94 15.9851 156.558 14.6031 154.83 14.6031H136.254V20.7953H154.83Z" fill="#2E0368"></path>
<path d="M109.975 14.6031C107.105 14.6031 104.793 16.9152 104.793 19.7588C104.793 22.629 107.105 24.9411 109.975 24.9411H125.336V21.6989H109.576V17.5796H129.482V29.0604H109.975C104.819 29.0604 100.673 24.9145 100.673 19.7588C100.673 14.6297 104.819 10.4573 109.975 10.4573H129.482V14.6031H109.975Z" fill="#2E0368"></path>
<path d="M74 29.0604V10.4573H78.1193V24.9411H98.9281V29.0604H74Z" fill="#2E0368"></path>
<path d="M238.311 9.41768C238.311 10.7529 237.228 11.8354 235.893 11.8354C234.558 11.8354 233.475 10.7529 233.475 9.41768C233.475 8.08243 234.558 7 235.893 7C237.228 7 238.311 8.08243 238.311 9.41768Z" fill="#2E0368"></path>
<path d="M32 10H42C47.5228 10 52 14.4772 52 20C52 25.5228 47.5228 30 42 30H36V28H42C46.4183 28 50 24.4183 50 20C50 15.5817 46.4183 12 42 12H32V22H42C43.1046 22 44 21.1046 44 20C44 18.8954 43.1046 18 42 18H36V16H42C44.2091 16 46 17.7909 46 20C46 22.2091 44.2091 24 42 24H32V34H42C49.732 34 56 27.732 56 20C56 12.268 49.732 6 42 6H36V4H42C50.8366 4 58 11.1634 58 20C58 28.8366 50.8366 36 42 36H32V40H42C53.0457 40 62 31.0457 62 20C62 8.95431 53.0457 0 42 0H32V10Z" fill="#4D0DA2"></path>
<path d="M20 0C8.95431 0 0 8.95431 0 20C0 31.0457 8.95431 40 20 40H30V30H20C14.4772 30 10 25.5228 10 20C10 14.4772 14.4772 10 20 10H26V12H20C15.5817 12 12 15.5817 12 20C12 24.4183 15.5817 28 20 28H30V18H20C18.8954 18 18 18.8954 18 20C18 21.1046 18.8954 22 20 22H26V24H20C17.7909 24 16 22.2091 16 20C16 17.7909 17.7909 16 20 16H30V6H20C12.268 6 6 12.268 6 20C6 27.732 12.268 34 20 34H26V36H20C11.1634 36 4 28.8366 4 20C4 11.1634 11.1634 4 20 4H30V0H20Z" fill="#4D0DA2"></path>
</svg>