<svg width="286" height="40" viewBox="0 0 286 40" fill="none" xmlns="http://www.w3.org/2000/svg">
<path d="M286 7.5C286 8.88071 284.881 10 283.5 10C282.119 10 281 8.88071 281 7.5C281 6.11929 282.119 5 283.5 5C284.881 5 286 6.11929 286 7.5Z" fill="#002767"></path>
<path d="M213.975 23.4327C214.063 23.0176 213.868 22.6497 213.492 22.5205L199.501 17.7166C197.613 17.0683 196.635 15.2214 197.079 13.1388C197.645 10.4783 200.312 8.32143 203.036 8.32143H221.141L220.32 12.1786H202.215C201.672 12.1786 201.141 12.6085 201.028 13.1388C200.94 13.5538 201.134 13.9217 201.511 14.051L215.502 18.8548C217.39 19.5032 218.367 21.35 217.924 23.4327C217.358 26.0932 214.69 28.25 211.966 28.25H193.862L194.683 24.3929H212.787C213.33 24.3929 213.862 23.9629 213.975 23.4327Z" fill="#002767"></path>
<path d="M170.529 8L166.253 28.0893H162.303L166.58 8H170.529Z" fill="#002767"></path>
<path d="M275.18 8C278.452 8 280.552 10.5904 279.872 13.7857L276.862 27.9286H272.912L275.923 13.7857C276.15 12.7206 275.449 11.8571 274.359 11.8571H267.119L263.698 27.9286H259.749L263.17 11.8571H253.955L250.534 27.9286H246.585L250.006 11.8571H253.955L254.776 8H275.18Z" fill="#002767"></path>
<path fill-rule="evenodd" clip-rule="evenodd" d="M105.629 8.32143C108.901 8.32143 111.002 10.9118 110.322 14.1071L108.132 24.3929H104.183L103.362 28.25H88.2236C85.0032 28.25 82.9173 25.74 83.5017 22.6137L83.5316 22.4643L85.7211 12.1786H89.6702L90.4912 8.32143H105.629ZM87.4807 22.4643L87.4621 22.5635C87.2981 23.5825 87.9882 24.3929 89.0447 24.3929H104.183L106.372 14.1071C106.599 13.042 105.899 12.1786 104.808 12.1786H89.6702L87.4807 22.4643Z" fill="#002767"></path>
<path fill-rule="evenodd" clip-rule="evenodd" d="M158.284 8.32143C161.556 8.32143 163.656 10.9118 162.976 14.1071L160.787 24.3929H156.838L156.017 28.25H140.878C137.658 28.25 135.572 25.74 136.156 22.6137L136.186 22.4643L138.376 12.1786H142.325L143.146 8.32143H158.284ZM140.135 22.4643L140.117 22.5635C139.953 23.5825 140.643 24.3929 141.699 24.3929H156.838L159.027 14.1071C159.254 13.042 158.554 12.1786 157.463 12.1786H142.325L140.135 22.4643Z" fill="#002767"></path>
<path d="M177.867 12.1786C176.776 12.1786 175.708 13.042 175.482 14.1071L171.103 34.6786H167.154L171.533 14.1071C172.213 10.9118 175.416 8.32143 178.688 8.32143H191.851L191.03 12.1786H194.979L192.79 22.4643C192.11 25.6596 188.906 28.25 185.635 28.25H176.42L177.241 24.3929H186.456C187.546 24.3929 188.614 23.5294 188.841 22.4643L191.03 12.1786H177.867Z" fill="#002767"></path>
<path d="M115.274 20.2143C115.048 21.2794 115.748 22.1429 116.838 22.1429H126.053L125.232 26H116.017C112.746 26 110.645 23.4096 111.325 20.2143L112.967 12.5H116.916L117.737 8.64286H130.901C134.173 8.64286 136.273 11.2332 135.593 14.4286L132.446 29.2143C131.766 32.4096 128.562 35 125.29 35H112.62L113.442 31.1429H126.112C127.202 31.1429 128.27 30.2794 128.497 29.2143L131.644 14.4286C131.871 13.3635 131.171 12.5 130.08 12.5H116.916L115.274 20.2143Z" fill="#002767"></path>
<path d="M65.077 22.4643L68.0876 8.32143H64.1385L61.1279 22.4643C60.4477 25.6596 62.5484 28.25 65.8199 28.25H79.9963L80.8174 24.3929H66.641C65.5505 24.3929 64.8503 23.5294 65.077 22.4643Z" fill="#002767"></path>
<path d="M224.314 22.7857L224.296 22.8849C224.132 23.9039 224.822 24.7143 225.878 24.7143H241.017L244.438 8.64286H248.387L244.966 24.7143H241.017L240.196 28.5714H225.057C221.837 28.5714 219.751 26.0614 220.335 22.9351L220.365 22.7857L223.376 8.64286H227.325L224.314 22.7857Z" fill="#002767"></path>
<path fill-rule="evenodd" clip-rule="evenodd" d="M17 0C17.5523 0 18 0.447715 18 1V8.39648C18 8.61918 18.2693 8.7307 18.4268 8.57324L26.4141 0.585938C26.7891 0.210936 27.2978 7.97938e-05 27.8281 0H36.5859C36.8511 4.04019e-05 37.1055 0.105468 37.293 0.292969L40.293 3.29297C40.6834 3.68347 40.6834 4.31653 40.293 4.70703L36.4268 8.57324C36.2693 8.73073 36.3808 8.99997 36.6035 9H44.5859C44.8511 9.00004 45.1055 9.10547 45.293 9.29297L48.293 12.293C48.6834 12.6835 48.6834 13.3165 48.293 13.707L44.3535 17.6465C44.1583 17.8417 44.1583 18.1583 44.3535 18.3535L47.5859 21.5859C48.4914 22.4914 49 23.7195 49 25C49 26.2805 48.4913 27.5086 47.5859 28.4141L36.5859 39.4141C36.2109 39.7891 35.7022 39.9999 35.1719 40H32C31.4477 40 31 39.5523 31 39V31.6035C31 31.3808 30.7307 31.2693 30.5732 31.4268L22.5859 39.4141C22.2109 39.7891 21.7022 39.9999 21.1719 40H12.4141C12.1489 40 11.8945 39.8945 11.707 39.707L8.70703 36.707C8.31661 36.3165 8.31661 35.6835 8.70703 35.293L12.5732 31.4268C12.7307 31.2693 12.6192 31 12.3965 31H4.41406C4.1489 31 3.89453 30.8945 3.70703 30.707L0.707031 27.707C0.316606 27.3165 0.316607 26.6835 0.707031 26.293L4.64648 22.3535C4.8417 22.1583 4.8417 21.8417 4.64648 21.6465L1.41406 18.4141C0.508652 17.5086 0 16.2805 0 15C0 13.7195 0.508651 12.4914 1.41406 11.5859L12.4141 0.585938C12.7891 0.210936 13.2978 8.00463e-05 13.8281 0H17ZM20.0713 9C18.7452 9 17.4728 9.52716 16.5352 10.4648L5.85352 21.1465C5.53861 21.4615 5.76165 21.9999 6.20703 22H20.793C21.2383 22.0001 21.4613 22.5386 21.1465 22.8535L13.8535 30.1465C13.5386 30.4615 13.7616 30.9999 14.207 31H28.9287C30.2548 31 31.5272 30.4728 32.4648 29.5352L43.1465 18.8535C43.4417 18.5583 43.2642 18.0663 42.874 18.0059L42.793 18H28.207C27.7616 18 27.5386 17.4615 27.8535 17.1465L35.1465 9.85352C35.4614 9.53855 35.2384 9.00006 34.793 9H20.0713Z" fill="#297AFF"></path>
</svg>